<svg xmlns="http://www.w3.org/2000/svg" version="1.1" xmlns:xlink="http://www.w3.org/1999/xlink"
  xmlns:svgjs="http://svgjs.dev/svgjs" viewBox="0 0 800 800" opacity="1" width="800" height="800">
  <g stroke-width="10" stroke="hsla(0, 0%, 83%, 1.00)" fill="none">
    <circle r="12.5" cx="0" cy="0" fill="hsla(0, 0%, 83%, 1.00)" stroke="none"></circle>
    <circle r="12.5" cx="200" cy="0" fill="hsla(0, 0%, 83%, 1.00)" stroke="none"></circle>
    <circle r="12.5" cx="400" cy="0" fill="hsla(0, 0%, 83%, 1.00)" stroke="none"></circle>
    <circle r="12.5" cx="600" cy="0" fill="hsla(0, 0%, 83%, 1.00)" stroke="none"></circle>
    <circle r="12.5" cx="800" cy="0" fill="hsla(0, 0%, 83%, 1.00)" stroke="none"></circle>
    <circle r="12.5" cx="0" cy="200" fill="hsla(0, 0%, 83%, 1.00)" stroke="none"></circle>
    <circle r="12.5" cx="200" cy="200" fill="hsla(0, 0%, 83%, 1.00)" stroke="none"></circle>
    <circle r="12.5" cx="400" cy="200" fill="hsla(0, 0%, 83%, 1.00)" stroke="none"></circle>
    <circle r="12.5" cx="600" cy="200" fill="hsla(0, 0%, 83%, 1.00)" stroke="none"></circle>
    <circle r="12.5" cx="800" cy="200" fill="hsla(0, 0%, 83%, 1.00)" stroke="none"></circle>
    <circle r="12.5" cx="0" cy="400" fill="hsla(0, 0%, 83%, 1.00)" stroke="none"></circle>
    <circle r="12.5" cx="200" cy="400" fill="hsla(0, 0%, 83%, 1.00)" stroke="none"></circle>
    <circle r="12.5" cx="400" cy="400" fill="hsla(0, 0%, 83%, 1.00)" stroke="none"></circle>
    <circle r="12.5" cx="600" cy="400" fill="hsla(0, 0%, 83%, 1.00)" stroke="none"></circle>
    <circle r="12.5" cx="800" cy="400" fill="hsla(0, 0%, 83%, 1.00)" stroke="none"></circle>
    <circle r="12.5" cx="0" cy="600" fill="hsla(0, 0%, 83%, 1.00)" stroke="none"></circle>
    <circle r="12.5" cx="200" cy="600" fill="hsla(0, 0%, 83%, 1.00)" stroke="none"></circle>
    <circle r="12.5" cx="400" cy="600" fill="hsla(0, 0%, 83%, 1.00)" stroke="none"></circle>
    <circle r="12.5" cx="600" cy="600" fill="hsla(0, 0%, 83%, 1.00)" stroke="none"></circle>
    <circle r="12.5" cx="800" cy="600" fill="hsla(0, 0%, 83%, 1.00)" stroke="none"></circle>
    <circle r="12.5" cx="0" cy="800" fill="hsla(0, 0%, 83%, 1.00)" stroke="none"></circle>
    <circle r="12.5" cx="200" cy="800" fill="hsla(0, 0%, 83%, 1.00)" stroke="none"></circle>
    <circle r="12.5" cx="400" cy="800" fill="hsla(0, 0%, 83%, 1.00)" stroke="none"></circle>
    <circle r="12.5" cx="600" cy="800" fill="hsla(0, 0%, 83%, 1.00)" stroke="none"></circle>
    <circle r="12.5" cx="800" cy="800" fill="hsla(0, 0%, 83%, 1.00)" stroke="none"></circle>
  </g>
</svg>